
<svg width="24" height="24" color="" viewBox="0 0 24 24" fill="none" xmlns="http://www.w3.org/2000/svg">
<path fill-rule="evenodd" clip-rule="evenodd" d="M3.15214 9.47001C3.44485 9.00168 4.0618 8.8593 4.53013 9.15201L12.0001 13.8208L15.4701 11.652C15.9385 11.3593 16.5554 11.5017 16.8481 11.97C17.1408 12.4383 16.9985 13.0553 16.5301 13.348L12.5301 15.848C12.2059 16.0507 11.7944 16.0507 11.4701 15.848L3.47013 10.848C3.0018 10.5553 2.85943 9.93835 3.15214 9.47001Z" fill="white"/>
<path fill-rule="evenodd" clip-rule="evenodd" d="M19 11C18.4477 11 18 10.5523 18 10L18 4C18 3.44772 18.4477 3 19 3C19.5523 3 20 3.44772 20 4L20 10C20 10.5523 19.5523 11 19 11Z" fill="white"/>
<path fill-rule="evenodd" clip-rule="evenodd" d="M16.2929 6.70711C15.9024 6.31658 15.9024 5.68342 16.2929 5.29289L18.2929 3.29289C18.6834 2.90237 19.3166 2.90237 19.7071 3.29289L21.7071 5.29289C22.0976 5.68342 22.0976 6.31658 21.7071 6.70711C21.3166 7.09763 20.6834 7.09763 20.2929 6.70711L19 5.41421L17.7071 6.70711C17.3166 7.09763 16.6834 7.09763 16.2929 6.70711Z" fill="white"/>
<path fill-rule="evenodd" clip-rule="evenodd" d="M5 9.99994C4.44772 9.99994 4 10.4477 4 10.9999V18.9999C4 19.5522 4.44772 19.9999 5 19.9999H19C19.5523 19.9999 20 19.5522 20 18.9999V12.9999C20 12.4477 20.4477 11.9999 21 11.9999C21.5523 11.9999 22 12.4477 22 12.9999V18.9999C22 20.6568 20.6569 21.9999 19 21.9999H5C3.34315 21.9999 2 20.6568 2 18.9999V10.9999C2 9.34309 3.34315 7.99994 5 7.99994H13C13.5523 7.99994 14 8.44765 14 8.99994C14 9.55222 13.5523 9.99994 13 9.99994H5Z" fill="white"/>
</svg>
